<svg width="134" height="30" viewBox="0 0 134 30" fill="none" xmlns="http://www.w3.org/2000/svg">
<path d="M0 24.1892H3.91061V8.31081L10.7625 24.1892H13.637L20.6226 8.31081V24.1892H24.5332V0.540538H20.5223L12.5006 18.3784L4.71278 0.540538H0V24.1892Z" fill="white"/>
<path d="M39.7226 7.66892V18.4459C38.887 19.8649 37.2827 20.777 35.6449 20.777C33.3052 20.777 31.7677 19.1554 31.7677 16.4865V7.66892H28.0577V17.0608C28.0577 21.6554 30.6313 24.527 34.7425 24.527C36.7813 24.527 38.7533 23.5473 39.7226 21.9595V24.1892H43.4661V7.66892H39.7226Z" fill="white"/>
<path d="M50.4941 0.540538H46.7841V24.1892H50.4941V0.540538Z" fill="white"/>
<path d="M63.3175 20.7095C62.9833 20.8108 62.4485 20.9122 62.0474 20.9122C60.4096 20.9122 59.0727 19.7635 59.0727 17.8378V11.25H63.3509V7.66892H59.0727V3.24324H55.3626V7.66892H52.2207V11.25H55.3626V18.0068C55.3626 22.0946 57.9028 24.4257 61.5126 24.4257C62.2145 24.4257 62.9833 24.2905 63.5181 24.0203L63.3175 20.7095Z" fill="white"/>
<path d="M67.7645 0C66.461 0 65.3914 1.11486 65.3914 2.39865C65.3914 3.75 66.461 4.83108 67.7645 4.83108C69.0681 4.83108 70.1711 3.75 70.1711 2.39865C70.1711 1.11486 69.0681 0 67.7645 0ZM65.8928 7.66892V24.1892H69.6029V7.66892H65.8928Z" fill="white"/>
<path d="M81.858 7.33108C79.6855 7.33108 77.5129 8.41216 76.6439 9.86486V7.66892H72.9338V30H76.6439V21.9595C77.5129 23.4459 79.6855 24.527 81.858 24.527C86.27 24.527 89.7127 20.7432 89.7127 15.9459C89.7127 11.1149 86.27 7.33108 81.858 7.33108ZM81.0893 20.9459C79.2175 20.9459 77.4461 19.8986 76.6439 18.4459V13.3784C77.4461 11.9595 79.251 10.9122 81.0893 10.9122C83.8969 10.9122 86.036 13.0405 86.036 15.9459C86.036 18.8176 83.8969 20.9459 81.0893 20.9459Z" fill="white"/>
<path d="M95.9252 0.540538H92.2151V24.1892H95.9252V0.540538Z" fill="white"/>
<path d="M101.128 0C99.8244 0 98.7548 1.11486 98.7548 2.39865C98.7548 3.75 99.8244 4.83108 101.128 4.83108C102.431 4.83108 103.534 3.75 103.534 2.39865C103.534 1.11486 102.431 0 101.128 0ZM99.2561 7.66892V24.1892H102.966V7.66892H99.2561Z" fill="white"/>
<path d="M121.739 15.2027C121.739 10.777 118.296 7.33108 113.884 7.33108C109.172 7.33108 105.462 11.0473 105.462 15.8446C105.462 20.777 109.239 24.527 113.951 24.527C117.327 24.527 120.068 23.1757 121.271 20.9459L118.296 19.0203C117.528 20.3041 115.856 21.1149 114.018 21.1149C111.378 21.1149 109.573 19.4932 109.172 16.8243H121.605C121.706 16.3176 121.739 15.6419 121.739 15.2027ZM109.305 13.9527C109.874 11.7905 111.444 10.4392 113.684 10.4392C115.923 10.4392 117.628 11.8919 117.828 13.9527H109.305Z" fill="white"/>
<path d="M132.128 7.33108C130.624 7.33108 128.786 8.34459 127.95 9.93243V7.66892H124.24V24.1892H127.95V13.6486C128.819 11.8243 130.591 10.8108 131.827 10.8108C132.463 10.8108 133.198 10.9459 133.766 11.1486L134 7.60135C133.532 7.43243 132.897 7.33108 132.128 7.33108Z" fill="white"/>
</svg>
